# xmcd
# 
# Track frame offsets:
#     150
#     18795
#     31997
#     48077
#     66582
#     81175
#     98575
#     118495
#     134697
#     153120
#     166385
#     183190
#     199127
#     226905
# 
# Disc length: 3253
# 
# Revision: 1
# Processed by: cddbd v1.5.2PL0 Copyright (c) Steve Scherf et al.
# Submitted via: BonkEnc v1.0beta2
# 
DISCID=b30cb30e
DTITLE=The Like - Are You Thinking What I'm Thinking?
DYEAR=2006
DGENRE=Blues
TTITLE0=June Gloom
TTITLE1=What I Say And What I Mean
TTITLE2=You Bring Me Down
TTITLE3=(So I'll Sit Here) Wating
TTITLE4=Bridge To Nowhere
TTITLE5=Once Things Look Up
TTITLE6=Under The Paving Stones
TTITLE7=Too Late
TTITLE8=We Are Lost
TTITLE9=The One
TTITLE10=Mrs. Actually
TTITLE11=Falling Away
TTITLE12=Waves That Never Break
TTITLE13=Video
EXTD=
EXTT0=
EXTT1=
EXTT2=
EXTT3=
EXTT4=
EXTT5=
EXTT6=
EXTT7=
EXTT8=
EXTT9=
EXTT10=
EXTT11=
EXTT12=
EXTT13=
PLAYORDER=
